@startuml
left to right direction
package 会費納入のお願いと督促 {
  stereotype 会費納入のお願いを作成 {
    {method} +MakeLetter
    {method} -StartsWith
  }
  stereotype 会費納入状況チェック {
    {method} -FindPaymentBy
    {method} -OpenCashbook
    {method} -PrintFinding
    {method} +Proc納入状況チェック
    {method} -RecordFindingIntoMemberTable
  }
}
package 会員名簿からIDパスワード管理情報を生成する {
  stereotype IDPW通知するWord文書を生成 {
    {method} +IDPW通知文書を生成
  }
  stereotype 青眼HPのIDPW一覧CSVを生成 {
    {method} +CSVを生成
  }
}
package 決算算出ワークブック {
  stereotype 決算書作成 {
    {method} +決算書作成
  }
}
package Cashbook現金出納帳のためのVBAライブラリ {
  class Account {
    {field} +AccountName
    {field} +AccountTypeAsString
    {field} +AccType
    {method} +Initialize
    {method} +Of
    {field} +SubAccountName
    {method} +ToString
  }
  class Cash {
    {method} -Class_Initialize
    {method} +ColumnHeader
    {method} +Initialize
    {field} +ItsAccount
    {method} +ToDate
    {method} +ToString
  }
  class CashList {
    {method} +Add
    {method} -Class_Initialize
    {method} +Count
    {method} +Items
    {method} +SumOfExpenseAmount
    {method} +SumOfIncomeAmount
    {method} +ToString
  }
  class CashSelector {
    {method} +Initialize
    {method} +SelectCashList
    {method} +SelectCashListByAccount
    {method} +SelectCashListByMatchingDescription
    {method} -TrimAllSpaces
  }
  class Cashbook {
    {method} -Class_Initialize
    {method} +Count
    {method} +GetCashByKey
    {method} +Initialize
    {method} +Items
  }
  class CashbookTransformer {
    {method} +ByAccounts
    {method} +FindKeysAsString
    {method} +Initialize
  }
  stereotype CbFactories {
    {method} +CreateCashbook
    {method} +CreateCashbookTransformer
    {method} +CreateCashSelector
    {method} +CreateEmptyCashList
  }
  stereotype CbHelper {
    {method} +PrintAccounts
  }
  stereotype WriteSettlement {
    {method} +Get小計
    {method} +Is金額が非ゼロだ
    {method} +Is取り込むべき
    {method} +Is収支報告単位が該当する
    {method} +Is年度内だ
    {method} +Test_Get小計
    {method} +Test勘定科目の小計を算出する
    {method} +Test小計の表を作る
    {method} +ToDate
    {method} +To勘定科目
    {method} +TransferRow
    {method} +勘定科目の小計を算出する
    {method} +現金出納記録ワークシートが無ければ作る
    {method} +小計の表を作る
    {method} +入出金記録をソートする
    {method} +入出金記録を取り込む
  }
}
package Member会員名簿のためのVBAライブラリ {
  stereotype MbMemberTableUtil {
    {method} +FetchMemberTable
  }
}
package Backboneライブラリ {
  stereotype BbArraySort {
    {method} +InsertionSort
  }
  class BbDocTransformer {
    {method} +Initialize
    {method} +Transform
  }
  stereotype BbDocTransformerFactory {
    {method} +CreateDocTransformer
  }
  stereotype BbFile {
    {method} +AbsolutifyPath
    {method} +CreateFolder
    {method} +DeleteFile
    {method} +DeleteFolder
    {method} +EnsureFolders
    {method} +IsAbsolutePath
    {method} +PathExists
    {method} +ToLocalFilePath
    {method} +WriteTextIntoFile
  }
  stereotype BbLog {
    {method} +Clear
    {method} +Info
  }
  stereotype BbRange {
    {method} +GetUniqueItems
  }
  stereotype BbUtil {
    {method} +ResolveExternalFilePath
    {method} +VarTypeAsString
  }
  stereotype BbWorksheet {
    {method} +CreateWorksheetInWorkbook
    {method} +DeleteWorksheetInWorkbook
    {method} +FetchWorksheetFromWorkbook
    {method} +IsWorksheetPresentInWorkbook
  }
}
package VBACallGraphSetup {
  stereotype CodeModuleUtil {
    {method} +GetCodeModule
    {method} -GetProcComment
    {method} -GetProcSource
    {method} -IsProcLine
  }
  class ProcedureInfo {
    {field} +ModuleType
    {field} +ProcKindName
    {field} +Scope
  }
  stereotype VBACallGraphSetup {
    {method} +ExportModules
    {method} -FormatProcKindName
    {method} -KzCreateWorksheetInWorkbook
    {method} +KzIsWorksheetPresentInWorkbook
  }
}
Backboneライブラリ.BbRange ..> Cashbook現金出納帳のためのVBAライブラリ.CashList : Add
Backboneライブラリ.BbUtil ..> Backboneライブラリ.BbFile : AbsolutifyPath
Backboneライブラリ.BbUtil ..> Backboneライブラリ.BbFile : ToLocalFilePath
Backboneライブラリ.BbUtil ..> Backboneライブラリ.BbWorksheet : IsWorksheetPresentInWorkbook
Backboneライブラリ.BbWorksheet ..> Backboneライブラリ.BbLog : Info
Backboneライブラリ.BbWorksheet ..> Cashbook現金出納帳のためのVBAライブラリ.CashList : Add
Cashbook現金出納帳のためのVBAライブラリ.Cash ..> Cashbook現金出納帳のためのVBAライブラリ.WriteSettlement : ToDate
Cashbook現金出納帳のためのVBAライブラリ.CashSelector ..> Cashbook現金出納帳のためのVBAライブラリ.Account : AccType
Cashbook現金出納帳のためのVBAライブラリ.CashSelector ..> Cashbook現金出納帳のためのVBAライブラリ.Account : AccountName
Cashbook現金出納帳のためのVBAライブラリ.CashSelector ..> Cashbook現金出納帳のためのVBAライブラリ.Account : SubAccountName
Cashbook現金出納帳のためのVBAライブラリ.CashSelector ..> Cashbook現金出納帳のためのVBAライブラリ.Cash : ItsAccount
Cashbook現金出納帳のためのVBAライブラリ.CashSelector ..> Cashbook現金出納帳のためのVBAライブラリ.Cash : ToDate
Cashbook現金出納帳のためのVBAライブラリ.CashSelector ..> Cashbook現金出納帳のためのVBAライブラリ.CashList : Add
Cashbook現金出納帳のためのVBAライブラリ.CashSelector ..> Cashbook現金出納帳のためのVBAライブラリ.WriteSettlement : ToDate
Cashbook現金出納帳のためのVBAライブラリ.Cashbook ..> Cashbook現金出納帳のためのVBAライブラリ.CashList : Add
Cashbook現金出納帳のためのVBAライブラリ.CashbookTransformer ..> Backboneライブラリ.BbArraySort : InsertionSort
Cashbook現金出納帳のためのVBAライブラリ.CashbookTransformer ..> Cashbook現金出納帳のためのVBAライブラリ.Account : AccType
Cashbook現金出納帳のためのVBAライブラリ.CashbookTransformer ..> Cashbook現金出納帳のためのVBAライブラリ.Account : AccountName
Cashbook現金出納帳のためのVBAライブラリ.CashbookTransformer ..> Cashbook現金出納帳のためのVBAライブラリ.Account : Of
Cashbook現金出納帳のためのVBAライブラリ.CashbookTransformer ..> Cashbook現金出納帳のためのVBAライブラリ.Account : SubAccountName
Cashbook現金出納帳のためのVBAライブラリ.CashbookTransformer ..> Cashbook現金出納帳のためのVBAライブラリ.Cash : ItsAccount
Cashbook現金出納帳のためのVBAライブラリ.CashbookTransformer ..> Cashbook現金出納帳のためのVBAライブラリ.Cash : ToDate
Cashbook現金出納帳のためのVBAライブラリ.CashbookTransformer ..> Cashbook現金出納帳のためのVBAライブラリ.CashList : Add
Cashbook現金出納帳のためのVBAライブラリ.CashbookTransformer ..> Cashbook現金出納帳のためのVBAライブラリ.CashList : SumOfExpenseAmount
Cashbook現金出納帳のためのVBAライブラリ.CashbookTransformer ..> Cashbook現金出納帳のためのVBAライブラリ.CashList : SumOfIncomeAmount
Cashbook現金出納帳のためのVBAライブラリ.CashbookTransformer ..> Cashbook現金出納帳のためのVBAライブラリ.CashSelector : SelectCashList
Cashbook現金出納帳のためのVBAライブラリ.CashbookTransformer ..> Cashbook現金出納帳のためのVBAライブラリ.WriteSettlement : ToDate
Cashbook現金出納帳のためのVBAライブラリ.CbFactories ..> Backboneライブラリ.BbLog : Info
Cashbook現金出納帳のためのVBAライブラリ.CbHelper ..> Backboneライブラリ.BbArraySort : InsertionSort
Cashbook現金出納帳のためのVBAライブラリ.CbHelper ..> Cashbook現金出納帳のためのVBAライブラリ.CashList : SumOfExpenseAmount
Cashbook現金出納帳のためのVBAライブラリ.CbHelper ..> Cashbook現金出納帳のためのVBAライブラリ.CashList : SumOfIncomeAmount
Cashbook現金出納帳のためのVBAライブラリ.CbHelper ..> Cashbook現金出納帳のためのVBAライブラリ.CashbookTransformer : ByAccounts
Cashbook現金出納帳のためのVBAライブラリ.CbHelper ..> Cashbook現金出納帳のためのVBAライブラリ.CbFactories : CreateCashbookTransformer
Cashbook現金出納帳のためのVBAライブラリ.WriteSettlement ..> Backboneライブラリ.BbLog : Clear
Cashbook現金出納帳のためのVBAライブラリ.WriteSettlement ..> Backboneライブラリ.BbLog : Info
Cashbook現金出納帳のためのVBAライブラリ.WriteSettlement ..> Backboneライブラリ.BbRange : GetUniqueItems
Cashbook現金出納帳のためのVBAライブラリ.WriteSettlement ..> Backboneライブラリ.BbWorksheet : IsWorksheetPresentInWorkbook
Cashbook現金出納帳のためのVBAライブラリ.WriteSettlement ..> Cashbook現金出納帳のためのVBAライブラリ.Cash : ToDate
Cashbook現金出納帳のためのVBAライブラリ.WriteSettlement ..> Cashbook現金出納帳のためのVBAライブラリ.CashList : Add
Member会員名簿のためのVBAライブラリ.MbMemberTableUtil ..> Backboneライブラリ.BbFile : AbsolutifyPath
Member会員名簿のためのVBAライブラリ.MbMemberTableUtil ..> Backboneライブラリ.BbWorksheet : FetchWorksheetFromWorkbook
Member会員名簿のためのVBAライブラリ.MbMemberTableUtil ..> Backboneライブラリ.BbWorksheet : IsWorksheetPresentInWorkbook
VBACallGraphSetup.CodeModuleUtil ..> Cashbook現金出納帳のためのVBAライブラリ.CashList : Add
VBACallGraphSetup.CodeModuleUtil ..> VBACallGraphSetup.ProcedureInfo : ModuleType
VBACallGraphSetup.VBACallGraphSetup ..> Backboneライブラリ.BbLog : Clear
VBACallGraphSetup.VBACallGraphSetup ..> Cashbook現金出納帳のためのVBAライブラリ.CashList : Add
VBACallGraphSetup.VBACallGraphSetup ..> VBACallGraphSetup.CodeModuleUtil : GetCodeModule
VBACallGraphSetup.VBACallGraphSetup ..> VBACallGraphSetup.ProcedureInfo : ModuleType
VBACallGraphSetup.VBACallGraphSetup ..> VBACallGraphSetup.ProcedureInfo : ProcKindName
VBACallGraphSetup.VBACallGraphSetup ..> VBACallGraphSetup.ProcedureInfo : Scope
会員名簿からIDパスワード管理情報を生成する.IDPW通知するWord文書を生成 ..> Backboneライブラリ.BbDocTransformer : Transform
会員名簿からIDパスワード管理情報を生成する.IDPW通知するWord文書を生成 ..> Backboneライブラリ.BbDocTransformerFactory : CreateDocTransformer
会員名簿からIDパスワード管理情報を生成する.IDPW通知するWord文書を生成 ..> Backboneライブラリ.BbFile : AbsolutifyPath
会員名簿からIDパスワード管理情報を生成する.IDPW通知するWord文書を生成 ..> Backboneライブラリ.BbFile : EnsureFolders
会員名簿からIDパスワード管理情報を生成する.IDPW通知するWord文書を生成 ..> Backboneライブラリ.BbLog : Clear
会員名簿からIDパスワード管理情報を生成する.IDPW通知するWord文書を生成 ..> Backboneライブラリ.BbUtil : ResolveExternalFilePath
会員名簿からIDパスワード管理情報を生成する.IDPW通知するWord文書を生成 ..> Cashbook現金出納帳のためのVBAライブラリ.CashList : Add
会員名簿からIDパスワード管理情報を生成する.IDPW通知するWord文書を生成 ..> Member会員名簿のためのVBAライブラリ.MbMemberTableUtil : FetchMemberTable
会員名簿からIDパスワード管理情報を生成する.青眼HPのIDPW一覧CSVを生成 ..> Backboneライブラリ.BbFile : EnsureFolders
会員名簿からIDパスワード管理情報を生成する.青眼HPのIDPW一覧CSVを生成 ..> Backboneライブラリ.BbLog : Clear
会員名簿からIDパスワード管理情報を生成する.青眼HPのIDPW一覧CSVを生成 ..> Backboneライブラリ.BbUtil : ResolveExternalFilePath
会員名簿からIDパスワード管理情報を生成する.青眼HPのIDPW一覧CSVを生成 ..> Cashbook現金出納帳のためのVBAライブラリ.CashList : Add
会員名簿からIDパスワード管理情報を生成する.青眼HPのIDPW一覧CSVを生成 ..> Member会員名簿のためのVBAライブラリ.MbMemberTableUtil : FetchMemberTable
会費納入のお願いと督促.会費納入のお願いを作成 ..> Backboneライブラリ.BbDocTransformer : Transform
会費納入のお願いと督促.会費納入のお願いを作成 ..> Backboneライブラリ.BbDocTransformerFactory : CreateDocTransformer
会費納入のお願いと督促.会費納入のお願いを作成 ..> Backboneライブラリ.BbFile : AbsolutifyPath
会費納入のお願いと督促.会費納入のお願いを作成 ..> Backboneライブラリ.BbFile : DeleteFolder
会費納入のお願いと督促.会費納入のお願いを作成 ..> Backboneライブラリ.BbFile : EnsureFolders
会費納入のお願いと督促.会費納入のお願いを作成 ..> Backboneライブラリ.BbLog : Clear
会費納入のお願いと督促.会費納入のお願いを作成 ..> Backboneライブラリ.BbLog : Info
会費納入のお願いと督促.会費納入のお願いを作成 ..> Backboneライブラリ.BbUtil : ResolveExternalFilePath
会費納入のお願いと督促.会費納入のお願いを作成 ..> Cashbook現金出納帳のためのVBAライブラリ.CashList : Add
会費納入のお願いと督促.会費納入のお願いを作成 ..> Member会員名簿のためのVBAライブラリ.MbMemberTableUtil : FetchMemberTable
会費納入のお願いと督促.会費納入状況チェック ..> Backboneライブラリ.BbLog : Clear
会費納入のお願いと督促.会費納入状況チェック ..> Backboneライブラリ.BbLog : Info
会費納入のお願いと督促.会費納入状況チェック ..> Backboneライブラリ.BbUtil : ResolveExternalFilePath
会費納入のお願いと督促.会費納入状況チェック ..> Cashbook現金出納帳のためのVBAライブラリ.CashSelector : SelectCashListByMatchingDescription
会費納入のお願いと督促.会費納入状況チェック ..> Cashbook現金出納帳のためのVBAライブラリ.CbFactories : CreateCashSelector
会費納入のお願いと督促.会費納入状況チェック ..> Cashbook現金出納帳のためのVBAライブラリ.CbFactories : CreateCashbook
会費納入のお願いと督促.会費納入状況チェック ..> Cashbook現金出納帳のためのVBAライブラリ.CbFactories : CreateEmptyCashList
会費納入のお願いと督促.会費納入状況チェック ..> Member会員名簿のためのVBAライブラリ.MbMemberTableUtil : FetchMemberTable
決算算出ワークブック.決算書作成 ..> Cashbook現金出納帳のためのVBAライブラリ.WriteSettlement : 入出金記録をソートする
決算算出ワークブック.決算書作成 ..> Cashbook現金出納帳のためのVBAライブラリ.WriteSettlement : 入出金記録を取り込む
決算算出ワークブック.決算書作成 ..> Cashbook現金出納帳のためのVBAライブラリ.WriteSettlement : 小計の表を作る
決算算出ワークブック.決算書作成 ..> Cashbook現金出納帳のためのVBAライブラリ.WriteSettlement : 現金出納記録ワークシートが無ければ作る
@enduml
